<?xml version="1.0" encoding="UTF-8" standalone="no"?>
<!DOCTYPE svg PUBLIC "-//W3C//DTD SVG 1.1//EN" "http://www.w3.org/Graphics/SVG/1.1/DTD/svg11.dtd">
<svg width="100%" height="100%" viewBox="0 0 793 550" version="1.1" xmlns="http://www.w3.org/2000/svg" xmlns:xlink="http://www.w3.org/1999/xlink" xml:space="preserve" xmlns:serif="http://www.serif.com/" style="fill-rule:evenodd;clip-rule:evenodd;stroke-linejoin:round;stroke-miterlimit:2;">
    <g transform="matrix(1,0,0,1,-3.109667,-172.115956)">
        <g transform="matrix(1.36774,0,0,1.36774,-284.239398,-271.375181)">
            <path d="M658.109,442.96L659.474,530.536C659.474,530.536 663.878,562.767 624.295,593.269C600.864,611.325 558.846,634.481 500,634.481C452.546,634.481 421.524,621.223 398.158,608.136C343.6,577.578 340.92,530.536 340.92,530.536L341.89,442.96C341.89,442.96 346.337,401.043 395.203,372.704C418.536,359.173 452.493,347.248 500,347.248C554.925,347.248 591.128,363.127 614.561,379.255C655.512,407.44 658.109,442.96 658.109,442.96ZM373.001,453.478C373.001,470.471 384.705,538.72 507.569,538.72C572.998,538.72 627.799,498.827 627.799,451.734C627.799,400.68 555.77,367.612 499.515,367.612C418.26,367.612 373.001,416.385 373.001,453.478ZM373.784,518.784C365.299,563.141 420.138,612.583 500,612.583C583.94,612.583 633.937,560.683 627.383,518.984C627.352,518.785 581.063,560.983 500,560.983C421.328,560.983 373.792,518.743 373.784,518.784Z" style="fill:white;"/>
        </g>
        <g transform="matrix(1.36774,0,0,1.36774,-284.239398,-271.375181)">
            <path d="M432.25,498.567C414.995,485.562 407.209,468.683 407.532,455.713C407.808,444.646 414.348,427.881 431.02,414.681C428.098,419.917 419.257,437.21 419.257,454.787C419.257,472.307 429.546,493.341 432.25,498.567ZM444.208,406.237C457.972,399.169 476.233,394.428 500,394.428C505.664,394.428 511.011,394.687 516.057,395.175C509.837,399.107 496.114,408.025 489.292,414.349C464.013,437.786 462.236,449.638 457.814,460.866C450.126,480.392 452.527,503.011 453.606,510.347C447.267,507.862 441.623,504.918 436.649,501.659C434.714,496.402 425.241,469.788 425.932,454.237C426.66,437.856 440.947,411.952 444.208,406.237ZM538.728,399.339C559.895,405.347 573.609,416.112 581.886,427.355C572.103,430.929 515.141,452.676 498.396,480.267C486.063,500.589 483.786,513.913 483.376,517.571C474.062,516.48 465.671,514.559 458.169,512.013C458.406,504.992 459.741,478.789 466.64,465.555C483.246,433.702 495.598,423.71 515.939,410.152C520.569,407.066 531.537,402.317 538.728,399.339ZM587.789,437.203C591.09,444.182 592.494,450.858 592.494,456.185C592.494,462.777 591.231,468.781 588.972,474.226C579.485,476.219 560.392,481.051 546.989,489.844C532.625,499.267 522.894,513.027 520.324,516.9C513.026,518.099 506.078,518.641 500,518.588C495.694,518.55 491.551,518.349 487.568,518C488.5,511.861 493.968,486.858 522.872,466.712C554.081,444.959 579.605,438.739 587.789,437.203ZM585.78,480.525C573.635,500.65 547.071,511.933 523.363,516.366C525.049,513.871 531.622,505.643 551.569,493.361C563.361,486.1 578.886,482.066 585.78,480.525Z" style="fill:white;"/>
        </g>
        <g transform="matrix(1.36774,0,0,1.36774,-264.642464,-273.429565)">
            <path d="M246.706,525.729L316.49,525.729C316.49,525.729 317.237,541.653 319.083,547.044C320.591,551.45 322.642,557.094 322.642,557.094L279.728,557.094L279.728,573.988C279.728,578 284.228,582.834 288.241,582.834C293.657,582.834 337.994,582.5 337.994,582.5C337.994,582.5 346.961,594.036 352.815,599.545C358.668,605.054 377.035,615.071 377.035,615.071L271.277,615.071C260.078,615.071 246.831,604.695 246.831,590.625C246.831,576.556 246.706,525.729 246.706,525.729Z" style="fill:white;"/>
        </g>
        <g transform="matrix(1.36774,0,0,1.36774,-264.642464,-273.429565)">
            <g transform="matrix(1,0,0,1,-3.655665,0)">
                <path d="M199.418,497.807C199.418,497.807 224.529,484.611 236.345,477.119C246.835,470.468 264.469,455.047 264.469,455.047L205.267,454.564L204.946,426.564L284.449,425.766C284.449,425.766 289.431,418.266 291.805,414.427C292.207,413.777 292.671,413.01 293.165,412.185C295.576,408.153 298.69,402.731 298.69,402.731L222.87,402.411L222.87,374.248L264.953,374.248C264.953,374.248 259.28,362.853 256.178,357.369C252.738,351.289 244.314,337.765 244.314,337.765L273.274,326.886L284.889,346.075L295.673,366.889L299.482,373.968L313.364,373.765C313.364,373.765 318.663,357.98 320.744,350.06C322.801,342.229 325.846,326.245 325.846,326.245L356.043,330.085C356.043,330.085 352.289,346.887 350.449,354.14C348.775,360.737 345,373.608 345,373.608L372.052,373.608C372.052,373.608 360.465,381.31 355.371,386.109C350.515,390.684 340.997,402.57 340.997,402.57L332.146,402.726C332.146,402.726 328.642,409.807 326.73,413.562C324.789,417.374 320.497,425.604 320.497,425.604C320.497,425.604 324.103,425.626 327.028,425.626C325.901,428.921 323.605,435.511 322.763,440.406C321.938,445.207 321.979,454.997 321.979,454.997L304.48,455.175L297.596,463.544L286.946,475.615L321.379,475.615L321.379,508.218L246.706,508.218L231.897,516.74L217.783,524.718L199.418,497.807Z" style="fill:white;"/>
            </g>
        </g>
        <g transform="matrix(1.36774,0,0,1.36774,-264.642464,-273.429565)">
            <path d="M414.192,325.753L442.099,336.893L437.783,346.942C437.783,346.942 419.533,349.665 414.03,352.002C406.23,355.315 390.948,362.49 390.948,362.49C390.948,362.49 401.834,350.051 405.757,343.188C408.799,337.867 414.192,325.753 414.192,325.753Z" style="fill:white;"/>
        </g>
        <g transform="matrix(1.36774,0,0,1.36774,-261.906983,-273.429565)">
            <path d="M620.516,332.529L660.089,326.245C660.089,326.245 662.311,338.667 664.422,344.878C666.591,351.259 672.335,364.954 672.335,364.954L757.898,346.315L761.228,379.44L684.323,395.228C684.323,395.228 687.602,403.48 689.375,407.072C691.437,411.25 696.696,420.297 696.696,420.297L770.081,402.908L773.068,436.722L709.892,450.557C709.892,450.557 720.26,467.303 725.841,474.939C732.846,484.522 753.121,508.189 753.121,508.189L725.602,527.922L696.721,519.001L652.765,515.226L652.739,484.961C652.739,484.961 668.987,485.33 674.426,485.915C680.462,486.564 699.788,490.589 699.788,490.589C699.788,490.589 689.785,477.355 685.785,471.453C682.221,466.194 675.789,455.174 675.789,455.174L651.496,454.948C651.496,454.948 651.633,446.419 651.312,442.935C651.035,439.928 650.493,436.808 649.573,434.045C648.733,431.52 646.614,426.578 646.614,426.578L661.655,425.358C661.655,425.358 657.735,418.32 655.575,414.107C653.77,410.588 649.496,400.485 649.496,400.485L634.829,401.634C634.984,401.651 628.27,392.011 622.465,387.098C617.644,383.018 601.329,372.493 601.329,372.493C594.039,372.06 625.301,369.983 636.248,369.433C636.248,369.433 630.489,357.803 628.01,351.988C625.388,345.838 620.516,332.529 620.516,332.529Z" style="fill:white;"/>
        </g>
        <g transform="matrix(1.36774,0,0,1.36774,-264.642464,-273.429565)">
            <path d="M617.564,601.213C617.564,601.213 633.055,590.24 638.193,584.395C642.786,579.17 651.209,567.355 651.209,567.355C651.209,567.355 685.573,565.434 699.988,562.041C714.348,558.66 742.086,547.725 742.086,547.725L748.095,586.174C748.095,586.174 707.825,597.097 687.879,599.489C666.976,601.995 617.564,601.213 617.564,601.213Z" style="fill:white;"/>
        </g>
        <g id="Palitos" transform="matrix(1.36774,0,0,1.36774,-288.642464,-275.429565)">
            <path d="M248.1,705.314C246.302,705.74 242.794,706.75 244.462,711.64C245.422,715.129 249.043,725.501 249.058,725.528C250.316,727.707 250.59,730.067 255.983,728.825C298.328,719.074 504.29,669.615 504.29,669.615C504.29,669.615 714.029,699.957 757.695,705.176C762.417,705.741 764.864,705.471 766.289,700.934C767.352,697.549 768.778,690.777 769.276,687.319C769.866,683.226 770.241,680.988 763.68,680.136C728.097,675.516 556.102,657.202 556.102,657.202C556.102,657.202 738.899,613.067 775.837,603.021C778.114,602.402 779.055,600.763 777.662,597.091C776.519,594.079 775.185,593.305 773.125,593.71C727.273,602.725 502.623,651.018 502.623,651.018C502.623,651.018 280.738,625.815 234.86,621.571C232.04,621.311 228.76,620.147 227.354,625.555C226.015,630.707 229.511,631.559 232.152,631.989C269.463,638.064 451.222,662.003 451.222,662.003C451.222,662.003 282.598,697.156 248.1,705.314Z" style="fill:white;"/>
        </g>
    </g>
</svg>
